<svg width="288" height="85" viewBox="0 0 288 85" fill="none" xmlns="http://www.w3.org/2000/svg">
<g clip-path="url(#clip0)">
<path d="M58.665 56.0859H50.9003L41.9814 30.6922L36.9732 44.5826H44.6814L46.7991 50.6282H35.092L33.0662 56.093H25.3015L37.6897 23.8284H46.2697L58.665 56.0859ZM197.106 56.0859V50.0403H183.511V23.8319H176.618V56.0965L197.106 56.0859ZM236.837 56.0859V50.0403H223.248V23.8319H216.345V56.0965L236.837 56.0859ZM138.44 29.6049C136.396 29.6049 134.397 30.2133 132.697 31.3531C130.997 32.493 129.672 34.1131 128.89 36.0086C128.107 37.9041 127.902 39.9899 128.301 42.0022C128.7 44.0145 129.685 45.8628 131.13 47.3136C132.576 48.7644 134.418 49.7524 136.423 50.1526C138.429 50.5529 140.507 50.3475 142.396 49.5623C144.285 48.7772 145.9 47.4476 147.036 45.7416C148.172 44.0357 148.778 42.0301 148.778 39.9784C148.775 37.228 147.685 34.5911 145.747 32.6463C143.809 30.7015 141.181 29.6077 138.44 29.6049V29.6049ZM138.44 23.2901C141.73 23.2894 144.945 24.2675 147.681 26.1008C150.416 27.9342 152.548 30.5403 153.807 33.5896C155.067 36.6389 155.397 39.9945 154.755 43.232C154.114 46.4694 152.53 49.4433 150.205 51.7776C147.879 54.1118 144.916 55.7016 141.69 56.3458C138.463 56.99 135.119 56.6598 132.08 55.3968C129.041 54.1338 126.444 51.9948 124.616 49.2503C122.789 46.5059 121.813 43.2792 121.813 39.9784C121.813 35.5524 123.565 31.3076 126.684 28.178C129.803 25.0483 134.033 23.2901 138.444 23.2901H138.44ZM268.524 29.6049C266.479 29.6049 264.481 30.2133 262.781 31.3531C261.08 32.493 259.755 34.1131 258.973 36.0086C258.191 37.9041 257.986 39.9899 258.385 42.0022C258.784 44.0145 259.768 45.8628 261.214 47.3136C262.66 48.7644 264.502 49.7524 266.507 50.1526C268.512 50.5529 270.591 50.3475 272.48 49.5623C274.369 48.7772 275.983 47.4476 277.119 45.7416C278.255 44.0357 278.861 42.0301 278.861 39.9784C278.859 37.228 277.769 34.5911 275.831 32.6463C273.892 30.7015 271.265 29.6077 268.524 29.6049ZM268.524 23.2901C271.813 23.2901 275.028 24.2688 277.763 26.1026C280.498 27.9363 282.63 30.5427 283.888 33.5921C285.147 36.6415 285.477 39.9969 284.835 43.2341C284.193 46.4714 282.609 49.4449 280.283 51.7788C277.958 54.1127 274.994 55.7022 271.768 56.3461C268.542 56.99 265.198 56.6595 262.16 55.3964C259.121 54.1333 256.523 51.9943 254.696 49.25C252.869 46.5056 251.893 43.279 251.893 39.9784C251.893 35.5524 253.645 31.3076 256.764 28.178C259.883 25.0483 264.113 23.2901 268.524 23.2901V23.2901ZM104.053 34.4038C104.053 40.1378 99.4226 44.9828 93.705 44.9828H85.5662V56.0859H78.7191V23.8213H93.7191C99.4262 23.8213 104.057 28.6663 104.057 34.4003L104.053 34.4038ZM97.7603 34.4038C97.7603 32.1619 95.9426 30.1538 93.705 30.1538H85.5662V38.668H93.7191C95.9462 38.668 97.7673 36.6457 97.7673 34.4003L97.7603 34.4038ZM72.8038 65.8786C72.5208 65.8785 72.242 65.9466 71.9907 66.0773C71.7395 66.2079 71.5233 66.3973 71.3603 66.6295C71.3603 66.6295 69.8179 68.4003 68.985 69.2326C63.7427 74.5007 57.0907 78.1307 49.8347 79.6829C42.5786 81.2352 35.0297 80.6431 28.1021 77.9784C21.1745 75.3137 15.1654 70.6907 10.8024 64.6693C6.43944 58.6478 3.90977 51.4861 3.51976 44.0516C3.12975 36.617 4.89612 29.2284 8.60496 22.7806C12.3138 16.3327 17.806 11.1022 24.4165 7.72235C31.027 4.34253 38.4723 2.95841 45.8506 3.7376C53.229 4.5168 60.224 7.42588 65.9885 12.1126C65.6665 13.0513 65.6751 14.0724 66.0128 15.0056C66.3505 15.9387 66.9969 16.7274 67.8441 17.24C68.6913 17.7527 69.6881 17.9582 70.6682 17.8224C71.6482 17.6866 72.5521 17.2176 73.2292 16.4937C73.9062 15.7698 74.3154 14.8348 74.3884 13.8447C74.4614 12.8547 74.1938 11.8694 73.6302 11.0535C73.0667 10.2375 72.2414 9.64011 71.2919 9.36105C70.3425 9.08199 69.3264 9.13812 68.4132 9.52007C62.0162 4.26056 54.2107 1.01912 45.9807 0.204352C37.7506 -0.610418 29.4644 1.03795 22.1665 4.94167C14.8686 8.8454 8.88572 14.8297 4.972 22.1403C1.05828 29.451 -0.611088 37.7606 0.174328 46.0218C0.959743 54.283 4.16479 62.126 9.38545 68.5622C14.6061 74.9983 21.6087 79.7395 29.5105 82.1881C37.4123 84.6367 45.8597 84.6831 53.7878 82.3214C61.7158 79.9598 68.7697 75.2958 74.0603 68.9174C74.3104 68.6699 74.4812 68.3531 74.5508 68.0076C74.6205 67.6622 74.5858 67.3037 74.4513 66.9781C74.3167 66.6525 74.0884 66.3746 73.7955 66.18C73.5027 65.9854 73.1586 65.8829 72.8073 65.8857L72.8038 65.8786Z" fill="#717485"/>
</g>
<defs>
<clipPath id="clip0">
<rect width="288" height="85" fill="white"/>
</clipPath>
</defs>
</svg>
