<?xml version="1.0" encoding="utf-8"?>
<!-- Generator: Adobe Illustrator 19.0.0, SVG Export Plug-In . SVG Version: 6.00 Build 0)  -->
<svg version="1.1" id="Layer_1" xmlns="http://www.w3.org/2000/svg" xmlns:xlink="http://www.w3.org/1999/xlink" x="0px" y="0px"
	 viewBox="0 0 500 500" style="enable-background:new 0 0 500 500;" xml:space="preserve">
<style type="text/css">
	.st0{fill:#FFFFFF;}
	.st1{fill:#F48120;}
	.st2{fill:#FAAD3F;}
	.st3{fill:#404041;}
</style>
<g id="XMLID_1_">
	<polygon id="XMLID_2_" class="st0" points="415.9,227.4 395.3,222.6 391.7,221.1 297.1,221.9 297.1,267.5 415.9,267.8 	"/>
	<path id="XMLID_3_" class="st1" d="M377.3,263.4c1.1-3.7,0.7-7.4-1.1-9.6c-1.8-2.2-4.4-3.7-7.7-4l-64-0.7c-0.4,0-0.7-0.4-1.1-0.4
		c-0.4-0.4-0.4-0.7,0-1.1c0.4-0.7,0.7-1.1,1.5-1.1l64.4-0.7c7.7-0.4,15.8-6.6,18.8-14l3.7-9.6c0-0.4,0.4-0.7,0-1.1
		c-4-18.8-21-32.7-40.8-32.7c-18.4,0-34.2,11.8-39.7,28.3c-3.7-2.6-8.1-4-13.2-3.7c-8.8,0.7-15.8,8.1-16.9,16.9
		c-0.4,2.2,0,4.4,0.4,6.6c-14.3,0.4-26.1,12.1-26.1,26.9c0,1.5,0,2.6,0.4,4c0,0.7,0.7,1.1,1.1,1.1h118.1c0.7,0,1.5-0.4,1.5-1.1
		L377.3,263.4z"/>
	<path id="XMLID_4_" class="st2" d="M397.5,222.2h-1.8c-0.4,0-0.7,0.4-1.1,0.7l-2.6,8.8c-1.1,3.7-0.7,7.4,1.1,9.6
		c1.8,2.2,4.4,3.7,7.7,4l13.6,0.7c0.4,0,0.7,0.4,1.1,0.4c0.4,0.4,0.4,0.7,0,1.1c-0.4,0.7-0.7,1.1-1.5,1.1l-14,0.7
		c-7.7,0.4-15.8,6.6-18.8,14l-0.7,3.3c-0.4,0.4,0,1.1,0.7,1.1h48.6c0.7,0,1.1-0.4,1.1-1.1c0.7-2.9,1.5-6.3,1.5-9.6
		C432.5,238,416.7,222.2,397.5,222.2"/>
	<polygon id="XMLID_5_" class="st3" points="107.6,281.8 115.7,281.8 115.7,303.9 129.7,303.9 129.7,310.9 107.6,310.9 	"/>
	<path id="XMLID_6_" class="st3" d="M138.1,296.2c0-8.5,6.6-15.1,15.8-15.1c9.2,0,15.5,6.6,15.5,15.1c0,8.5-6.6,15.1-15.8,15.1
		C144.8,311.3,138.1,304.6,138.1,296.2 M161.3,296.2c0-4.4-2.9-8.1-7.4-8.1c-4.4,0-7.4,3.7-7.4,7.7c0,4,2.9,7.7,7.4,7.7
		C158.4,304.3,161.3,300.6,161.3,296.2"/>
	<path id="XMLID_9_" class="st3" d="M179.4,298v-16.2h8.1V298c0,4,2.2,6.3,5.5,6.3c3.3,0,5.5-1.8,5.5-5.9v-16.6h8.1V298
		c0,9.6-5.5,13.6-13.6,13.6C184.5,311.3,179.4,307.2,179.4,298"/>
	<path id="XMLID_10_" class="st3" d="M218.7,281.8h11.4c10.3,0,16.6,5.9,16.6,14.3c0,8.5-6.3,14.7-16.6,14.7h-11v-29.1H218.7z
		 M230.1,303.5c4.8,0,8.1-2.6,8.1-7.4c0-4.8-3.3-7.4-8.1-7.4h-3.3v14.7H230.1z"/>
	<polygon id="XMLID_13_" class="st3" points="266.2,293.6 279.8,293.6 279.8,300.2 266.2,300.2 266.2,310.9 258.1,310.9 
		258.1,281.8 281.3,281.8 281.3,288.8 266.2,288.8 	"/>
	<polygon id="XMLID_14_" class="st3" points="292.7,281.8 300.8,281.8 300.8,303.9 314.8,303.9 314.8,310.9 292.7,310.9 	"/>
	<path id="XMLID_15_" class="st3" d="M335.7,281.5h8.1l12.5,29.4h-8.8l-2.2-5.2h-11.4l-2.2,5.2h-8.5L335.7,281.5z M343.1,299.5
		l-3.3-8.1l-3.3,8.1H343.1z"/>
	<path id="XMLID_18_" class="st3" d="M366.6,281.8h13.6c4.4,0,7.4,1.1,9.6,3.3c1.8,1.8,2.6,4,2.6,6.6c0,4.4-2.2,7.4-5.9,8.8l7,10.3
		h-9.2l-5.9-8.8h-3.7v8.8h-8.1V281.8z M379.9,295.8c2.6,0,4.4-1.5,4.4-3.3c0-2.2-1.8-3.3-4.4-3.3h-5.2v7h5.2V295.8z"/>
	<polygon id="XMLID_21_" class="st3" points="403.8,281.8 427.3,281.8 427.3,288.5 411.9,288.5 411.9,292.9 425.9,292.9 
		425.9,299.5 411.9,299.5 411.9,303.9 427.7,303.9 427.7,310.9 403.8,310.9 	"/>
	<path id="XMLID_22_" class="st3" d="M89.9,299.9c-1.1,2.6-3.7,4.4-6.6,4.4c-4.4,0-7.4-3.7-7.4-7.7c0-4,2.9-7.7,7.4-7.7
		c3.3,0,5.9,2.2,7,4.8h8.5c-1.5-7-7.4-12.1-15.5-12.1c-8.8,0-15.8,6.6-15.8,15.1c0,8.5,6.6,15.1,15.5,15.1c7.7,0,13.6-5.2,15.5-11.8
		H89.9z"/>
</g>
</svg>
