<svg width="505" height="72" viewBox="0 0 505 72" fill="none" xmlns="http://www.w3.org/2000/svg">
<path d="M502.161 50.5679C500.523 50.5679 499.213 49.2543 499.213 47.6123C499.213 45.9704 500.523 44.6568 502.161 44.6568C503.798 44.6568 505.108 45.9704 505.108 47.6123C505.108 49.2543 503.798 50.5679 502.161 50.5679ZM502.161 45.3136C500.85 45.3136 499.868 46.2988 499.868 47.6123C499.868 48.9259 500.85 49.9111 502.161 49.9111C503.471 49.9111 504.453 48.9259 504.453 47.6123C504.453 46.2988 503.471 45.3136 502.161 45.3136ZM503.471 49.2543H502.816L502.161 48.2691H501.505V49.2543H500.85V46.2988H502.488C503.143 46.2988 503.471 46.6272 503.471 47.2839C503.471 47.6123 503.143 47.9407 502.816 48.2691L503.471 49.2543V49.2543ZM502.488 47.6123C502.816 47.6123 502.816 47.6123 502.816 47.2839C502.816 46.9556 502.488 46.9556 502.488 46.9556H501.505V47.9407H502.488V47.6123ZM208.7 44.6568H215.906V64.3605H228.351V70.6H208.7V44.6568ZM235.884 57.4642C235.884 49.9111 241.78 44 249.968 44C258.156 44 263.724 49.9111 263.724 57.4642C263.724 65.0173 257.828 70.9284 249.64 70.9284C241.78 70.9284 235.884 65.0173 235.884 57.4642ZM256.518 57.4642C256.518 53.5235 253.898 50.2395 249.968 50.2395C246.038 50.2395 243.417 53.5235 243.417 57.1358C243.417 60.7481 246.038 64.0321 249.968 64.0321C253.898 64.6889 256.518 61.4049 256.518 57.4642ZM272.567 59.1062V44.6568H279.772V59.1062C279.772 62.7185 281.738 64.6889 284.685 64.6889C287.633 64.6889 289.598 63.0469 289.598 59.4346V44.6568H296.804V59.1062C296.804 67.6444 291.891 71.2568 284.685 71.2568C277.152 70.9284 272.567 67.316 272.567 59.1062ZM307.612 44.6568H317.765C326.936 44.6568 332.504 49.9111 332.504 57.4642C332.504 65.0173 326.936 70.6 317.765 70.6H307.939V44.6568H307.612ZM317.765 64.0321C322.023 64.0321 324.971 61.7333 324.971 57.4642C324.971 53.1951 322.023 50.8963 317.765 50.8963H314.817V64.0321H317.765ZM342.657 44.6568H363.291V50.8963H349.862V55.1654H361.981V61.0765H349.862V70.6H342.657V44.6568ZM373.444 44.6568H380.65V64.3605H393.095V70.6H373.444V44.6568ZM411.764 44.3284H418.97L430.105 70.6H422.245L420.28 66.0025H410.127L408.161 70.6H400.628L411.764 44.3284V44.3284ZM418.315 60.4197L415.367 53.1951L412.419 60.4197H418.315V60.4197ZM439.276 44.6568H451.394C455.325 44.6568 457.945 45.642 459.91 47.6123C461.548 49.2543 462.203 51.2247 462.203 53.5235C462.203 57.4642 460.238 60.0913 456.962 61.4049L463.185 70.6H454.997L449.757 62.7185H446.482V70.6H439.276V44.6568V44.6568ZM451.067 57.1358C453.36 57.1358 454.997 55.8222 454.997 54.1802C454.997 52.2099 453.36 51.2247 451.067 51.2247H446.482V57.4642H451.067V57.1358ZM472.356 44.6568H493.317V50.5679H479.561V54.5086H492.007V60.4197H479.561V64.3605H493.645V70.6H472.356V44.6568ZM192.979 60.7481C191.996 63.0469 189.704 64.6889 187.083 64.6889C183.153 64.6889 180.533 61.4049 180.533 57.7926C180.533 54.1802 183.153 50.8963 187.083 50.8963C190.031 50.8963 192.324 52.8667 193.306 55.1654H200.839C199.529 48.9259 194.289 44.3284 187.083 44.3284C179.223 44.3284 173 50.2395 173 57.7926C173 65.3457 178.895 71.2568 186.756 71.2568C193.634 71.2568 198.874 66.6593 200.512 60.7481H192.979V60.7481Z" fill="#717485"/>
<path d="M108.738 66.9926C109.72 63.7086 109.393 60.4247 107.755 58.4543C106.117 56.4839 103.825 55.1704 100.877 54.842L43.8881 54.1852C43.5606 54.1852 43.233 53.8568 42.9055 53.8568C42.578 53.5284 42.578 53.2 42.9055 52.8716C43.233 52.2148 43.5605 51.8864 44.2156 51.8864L101.532 51.2296C108.41 50.9012 115.616 45.3185 118.236 38.7506L121.511 30.2123C121.511 29.884 121.839 29.5556 121.511 29.2272C117.908 12.479 102.842 0 85.156 0C68.7798 0 54.6963 10.5086 49.7835 25.2864C46.5082 22.9877 42.578 21.6741 37.9927 22.0025C30.1321 22.6593 23.9092 29.2272 22.9266 37.1086C22.5991 39.079 22.9266 41.0494 23.2541 43.0198C10.4807 43.3481 0 53.8568 0 66.9926C0 68.3062 -5.00248e-06 69.2914 0.327518 70.6049C0.327518 71.2617 0.982561 71.5901 1.31008 71.5901H106.445C107.1 71.5901 107.755 71.2617 107.755 70.6049L108.738 66.9926V66.9926Z" fill="#A0A0A0"/>
<path d="M126.751 30.2123H125.114C124.786 30.2123 124.459 30.5407 124.131 30.8691L121.838 38.7506C120.856 42.0345 121.183 45.3185 122.821 47.2889C124.459 49.2592 126.751 50.5728 129.699 50.9012L141.817 51.558C142.145 51.558 142.472 51.8864 142.8 51.8864C143.127 52.2148 143.127 52.5432 142.8 52.8716C142.472 53.5284 142.145 53.8568 141.49 53.8568L129.044 54.5135C122.166 54.8419 114.961 60.4247 112.34 66.9926L111.685 69.9481C111.358 70.2765 111.685 70.9333 112.34 70.9333H155.573C156.228 70.9333 156.556 70.6049 156.556 69.9481C157.211 67.3209 157.866 64.3654 157.866 61.4098C157.866 44.3333 143.783 30.2123 126.751 30.2123Z" fill="#BDBDBD"/>
</svg>
