<svg width="445" height="102" viewBox="0 0 445 102" fill="none" xmlns="http://www.w3.org/2000/svg">
<path d="M2.90374 39.6741H65.3341C65.5277 34.5408 64.9953 29.6012 63.737 24.8553C62.5755 20.1094 60.6397 15.8963 57.9296 12.2158C55.3162 8.53531 51.8801 5.58125 47.6213 3.35359C43.4593 1.12593 38.4745 0.0121065 32.667 0.0121065C28.505 0.0121065 24.4398 0.883798 20.4713 2.62718C16.5029 4.37057 13.0184 6.93721 10.0179 10.3271C7.01737 13.6202 4.59758 17.6881 2.75855 22.5308C0.919517 27.3735 0 32.8942 0 39.0929C0 44.6137 0.629143 49.7954 1.88743 54.6381C3.14572 59.384 5.08154 63.5487 7.6949 67.1323C10.3083 70.6191 13.6476 73.331 17.7128 75.2681C21.8748 77.2052 26.8596 78.1253 32.667 78.0285C41.1847 78.0285 48.3472 75.6556 54.1547 70.9097C59.9622 66.0669 63.3983 59.2871 64.463 50.5702H61.5592C60.3009 58.8029 57.0584 65.0015 51.8317 69.1663C46.7018 73.2342 40.2168 75.2681 32.3767 75.2681C27.0532 75.2681 22.5524 74.348 18.8743 72.5078C15.1962 70.6675 12.1957 68.1493 9.87271 64.9531C7.54972 61.7569 5.80748 58.028 4.64598 53.7664C3.58128 49.408 3.00053 44.7105 2.90374 39.6741ZM62.4304 36.7684H2.90374C3.19411 31.5383 4.16202 26.8408 5.80748 22.6761C7.45293 18.5113 9.58233 14.9761 12.1957 12.0705C14.9059 9.06801 18.0032 6.79193 21.4877 5.24226C25.0689 3.69258 28.8922 2.91774 32.9574 2.91774C37.797 2.91774 42.0558 3.83786 45.7339 5.6781C49.4119 7.42148 52.4609 9.84285 54.8806 12.9422C57.3972 16.0415 59.2846 19.6736 60.5429 23.8383C61.8012 27.9062 62.4304 32.2163 62.4304 36.7684Z" fill="#717485"/>
<path d="M124.135 1.75549L98.4367 35.6062L73.3194 1.75549H69.5445L96.6945 37.7854L66.9311 76.4304H70.4156L98.4367 39.9646L126.603 76.4304H130.233L100.324 37.7854L127.619 1.75549H124.135Z" fill="#717485"/>
<path d="M138.977 102V55.5098H139.267C141.009 62.2896 144.445 67.7619 149.575 71.9266C154.705 75.9945 161.239 78.0285 169.176 78.0285C174.306 78.0285 178.855 77.0115 182.823 74.9776C186.792 72.8468 190.082 69.9896 192.696 66.4059C195.406 62.8223 197.439 58.6576 198.794 53.9117C200.246 49.1658 200.972 44.1778 200.972 38.9477C200.972 33.3301 200.246 28.1484 198.794 23.4025C197.342 18.6566 195.212 14.5403 192.405 11.0535C189.695 7.56676 186.356 4.85483 182.388 2.91774C178.516 0.980652 174.112 0.0121065 169.176 0.0121065C165.401 0.0121065 161.868 0.593235 158.577 1.75549C155.383 2.82089 152.527 4.37056 150.011 6.40451C147.494 8.43846 145.317 10.8598 143.478 13.6686C141.638 16.3805 140.235 19.383 139.267 22.6761H138.977V1.75549H136.073V102H138.977ZM169.176 75.2681C160.077 75.2681 152.769 72.1688 147.252 65.9701C141.735 59.6745 138.977 50.6671 138.977 38.9477C138.977 34.1049 139.654 29.5043 141.009 25.1459C142.364 20.7874 144.3 16.9617 146.817 13.6686C149.43 10.3755 152.624 7.76047 156.399 5.82338C160.174 3.88629 164.433 2.91774 169.176 2.91774C174.015 2.91774 178.226 3.88629 181.807 5.82338C185.485 7.76047 188.485 10.424 190.808 13.8139C193.228 17.1069 195.019 20.9327 196.18 25.2912C197.439 29.5528 198.068 34.1049 198.068 38.9477C198.068 43.3061 197.487 47.6646 196.326 52.023C195.261 56.2846 193.567 60.1588 191.244 63.6456C188.921 67.0355 185.92 69.8443 182.242 72.0719C178.661 74.2027 174.306 75.2681 169.176 75.2681Z" fill="#717485"/>
<path d="M216.958 76.4304V34.1534C216.958 30.0855 217.539 26.1144 218.7 22.2402C219.862 18.3661 221.652 14.9761 224.072 12.0705C226.492 9.06801 229.541 6.7435 233.219 5.09697C236.994 3.35359 241.446 2.62718 246.576 2.91774V0.0121065C242.124 -0.0847468 238.204 0.399526 234.816 1.46492C231.525 2.53033 228.67 3.98315 226.25 5.82338C223.83 7.66362 221.894 9.84285 220.442 12.3611C218.991 14.7824 217.926 17.3975 217.248 20.2063H216.958V1.75549H214.054V76.4304H216.958Z" fill="#717485"/>
<path d="M250.175 39.6741H312.605C312.799 34.5408 312.267 29.6012 311.008 24.8553C309.847 20.1094 307.911 15.8963 305.201 12.2158C302.588 8.53531 299.151 5.58125 294.893 3.35359C290.731 1.12593 285.746 0.0121065 279.938 0.0121065C275.776 0.0121065 271.711 0.883798 267.743 2.62718C263.774 4.37057 260.29 6.93721 257.289 10.3271C254.289 13.6202 251.869 17.6881 250.03 22.5308C248.191 27.3735 247.271 32.8942 247.271 39.0929C247.271 44.6137 247.901 49.7954 249.159 54.6381C250.417 59.384 252.353 63.5487 254.966 67.1323C257.58 70.6191 260.919 73.331 264.984 75.2681C269.146 77.2052 274.131 78.1253 279.938 78.0285C288.456 78.0285 295.619 75.6556 301.426 70.9097C307.234 66.0669 310.67 59.2871 311.734 50.5702H308.831C307.572 58.8029 304.33 65.0015 299.103 69.1663C293.973 73.2342 287.488 75.2681 279.648 75.2681C274.325 75.2681 269.824 74.348 266.146 72.5078C262.468 70.6675 259.467 68.1493 257.144 64.9531C254.821 61.7569 253.079 58.028 251.917 53.7664C250.853 49.408 250.272 44.7105 250.175 39.6741ZM309.702 36.7684H250.175C250.465 31.5383 251.433 26.8408 253.079 22.6761C254.724 18.5113 256.854 14.9761 259.467 12.0705C262.177 9.06801 265.275 6.79193 268.759 5.24226C272.34 3.69258 276.164 2.91774 280.229 2.91774C285.068 2.91774 289.327 3.83786 293.005 5.6781C296.683 7.42148 299.732 9.84285 302.152 12.9422C304.669 16.0415 306.556 19.6736 307.814 23.8383C309.073 27.9062 309.702 32.2163 309.702 36.7684Z" fill="#717485"/>
<path d="M372.858 23.8383H375.762C375.762 15.5088 373.342 9.45543 368.502 5.6781C363.663 1.90077 357.081 0.0121065 348.757 0.0121065C344.111 0.0121065 340.191 0.593235 336.997 1.75549C333.803 2.91774 331.189 4.41899 329.157 6.25923C327.124 8.09947 325.672 10.1334 324.801 12.3611C323.93 14.5887 323.494 16.7195 323.494 18.7535C323.494 22.8214 324.22 26.066 325.672 28.4874C327.124 30.9087 329.399 32.7974 332.496 34.1534C334.625 35.1219 337.045 35.9936 339.755 36.7684C342.466 37.5433 345.611 38.3665 349.193 39.2382C352.387 40.0131 355.532 40.7879 358.63 41.5627C361.727 42.3376 364.437 43.403 366.76 44.7589C369.18 46.018 371.116 47.6646 372.568 49.6985C374.116 51.7325 374.891 54.396 374.891 57.689C374.891 60.8852 374.116 63.5972 372.568 65.8248C371.116 68.0525 369.228 69.8927 366.905 71.3455C364.582 72.7015 361.969 73.7185 359.065 74.3964C356.258 74.9776 353.5 75.2681 350.79 75.2681C341.982 75.2681 335.206 73.331 330.463 69.4569C325.817 65.4858 323.494 59.2871 323.494 50.8608H320.591C320.591 60.2557 323.107 67.1323 328.14 71.4908C333.27 75.8493 340.82 78.0285 350.79 78.0285C353.984 78.0285 357.178 77.6411 360.372 76.8662C363.663 76.1883 366.567 75.026 369.083 73.3795C371.697 71.7329 373.778 69.6021 375.326 66.9871C376.972 64.372 377.794 61.1758 377.794 57.3985C377.794 53.8148 377.068 50.9092 375.617 48.6815C374.261 46.4539 372.422 44.6136 370.099 43.1608C367.873 41.708 365.308 40.5942 362.405 39.8193C359.598 38.9477 356.742 38.1244 353.839 37.3496C349.773 36.2842 346.192 35.364 343.095 34.5892C340.094 33.8144 337.287 32.8942 334.674 31.8288C332.157 30.7634 330.125 29.2622 328.576 27.3251C327.124 25.2912 326.398 22.4339 326.398 18.7535C326.398 18.0755 326.592 16.8648 326.979 15.1214C327.366 13.378 328.286 11.6347 329.738 9.89127C331.189 8.05104 333.416 6.45294 336.416 5.09697C339.417 3.64415 343.53 2.91774 348.757 2.91774C352.338 2.91774 355.581 3.30516 358.485 4.08C361.485 4.85484 364.05 6.11395 366.179 7.85733C368.309 9.50386 369.954 11.6347 371.116 14.2497C372.277 16.8648 372.858 20.061 372.858 23.8383Z" fill="#717485"/>
<path d="M440.064 23.8383H442.967C442.967 15.5088 440.548 9.45543 435.708 5.6781C430.868 1.90077 424.287 0.0121065 415.963 0.0121065C411.317 0.0121065 407.397 0.593235 404.203 1.75549C401.008 2.91774 398.395 4.41899 396.362 6.25923C394.33 8.09947 392.878 10.1334 392.007 12.3611C391.136 14.5887 390.7 16.7195 390.7 18.7535C390.7 22.8214 391.426 26.066 392.878 28.4874C394.33 30.9087 396.604 32.7974 399.702 34.1534C401.831 35.1219 404.251 35.9936 406.961 36.7684C409.671 37.5433 412.817 38.3665 416.398 39.2382C419.592 40.0131 422.738 40.7879 425.835 41.5627C428.933 42.3376 431.643 43.403 433.966 44.7589C436.386 46.018 438.321 47.6646 439.773 49.6985C441.322 51.7325 442.096 54.396 442.096 57.689C442.096 60.8852 441.322 63.5972 439.773 65.8248C438.321 68.0525 436.434 69.8927 434.111 71.3455C431.788 72.7015 429.175 73.7185 426.271 74.3964C423.464 74.9776 420.705 75.2681 417.995 75.2681C409.187 75.2681 402.412 73.331 397.669 69.4569C393.023 65.4858 390.7 59.2871 390.7 50.8608H387.796C387.796 60.2557 390.313 67.1323 395.346 71.4908C400.476 75.8493 408.026 78.0285 417.995 78.0285C421.189 78.0285 424.383 77.6411 427.578 76.8662C430.868 76.1883 433.772 75.026 436.289 73.3795C438.902 71.7329 440.983 69.6021 442.532 66.9871C444.177 64.372 445 61.1758 445 57.3985C445 53.8148 444.274 50.9092 442.822 48.6815C441.467 46.4539 439.628 44.6136 437.305 43.1608C435.079 41.708 432.514 40.5942 429.61 39.8193C426.803 38.9477 423.948 38.1244 421.044 37.3496C416.979 36.2842 413.398 35.364 410.3 34.5892C407.3 33.8144 404.493 32.8942 401.88 31.8288C399.363 30.7634 397.33 29.2622 395.782 27.3251C394.33 25.2912 393.604 22.4339 393.604 18.7535C393.604 18.0755 393.797 16.8648 394.185 15.1214C394.572 13.378 395.491 11.6347 396.943 9.89127C398.395 8.05104 400.621 6.45294 403.622 5.09697C406.622 3.64415 410.736 2.91774 415.963 2.91774C419.544 2.91774 422.786 3.30516 425.69 4.08C428.691 4.85484 431.256 6.11395 433.385 7.85733C435.514 9.50386 437.16 11.6347 438.321 14.2497C439.483 16.8648 440.064 20.061 440.064 23.8383Z" fill="#717485"/>
</svg>
