<svg width="540" height="102" viewBox="0 0 540 102" fill="none" xmlns="http://www.w3.org/2000/svg">
<path d="M92.7904 42.2076C97.7254 41.972 102.094 45.7763 102.52 50.6848C104.365 74.4309 82.4977 101.032 51.6817 101.882C25.7127 102.519 0.0286865 81.8577 0.0286865 50.617C0.0286865 45.6935 4.12256 41.7022 9.06308 41.7022C14.0036 41.7022 18.0087 45.6935 18.0087 50.617C18.0087 71.1664 34.635 84.4656 51.2418 84.0584C71.6852 83.4939 84.9753 65.9024 84.284 51.5391C84.0469 46.6215 87.8558 42.4437 92.7904 42.2076Z" fill="url(#paint0_linear)"/>
<path d="M70.443 51.3081C70.443 46.2676 74.5803 42.1814 79.6837 42.1814H93.1506C98.2545 42.1814 102.52 46.2676 102.52 51.3081C102.52 56.349 98.2545 60.4352 93.1506 60.4352H79.6837C74.5803 60.4352 70.443 56.349 70.443 51.3081Z" fill="#717485"/>
<path d="M42.1862 51.3214C42.1862 46.2734 46.2971 42.1814 51.3624 42.1814C56.4281 42.1814 60.539 46.2734 60.539 51.3214C60.539 56.3694 56.4281 60.4619 51.3624 60.4619C46.2971 60.4619 42.1862 56.3694 42.1862 51.3214Z" fill="#717485"/>
<path fill-rule="evenodd" clip-rule="evenodd" d="M60.2848 8.61634C60.4901 13.5356 56.6544 17.689 51.7181 17.8933C30.4091 18.7752 17.4001 35.4193 18.0333 51.2232C18.2304 56.1425 14.4685 60.2899 9.53187 60.4864C4.59529 60.6829 0.254082 56.7124 0.0569704 51.7931C-0.974913 26.0391 20.6032 0.579205 50.9758 0.079203C55.912 -0.12509 60.08 3.69712 60.2848 8.61634Z" fill="#717485"/>
<path d="M170.966 57.2428H188.227C187.353 60.4594 185.975 63.3749 184.093 65.9886C182.277 68.5348 179.89 70.579 176.932 72.1207C173.974 73.6619 170.377 74.4325 166.142 74.4325C161.503 74.4325 157.301 73.3605 153.536 71.2156C149.838 69.0711 146.914 66.0889 144.762 62.2691C142.611 58.3819 141.535 53.8918 141.535 48.7985C141.535 43.6381 142.611 39.1815 144.762 35.4285C146.981 31.6085 149.939 28.6597 153.637 26.5822C157.402 24.5046 161.57 23.4659 166.142 23.4659C171.05 23.4659 175.218 24.4711 178.647 26.4817C182.143 28.4921 184.866 31.1729 186.815 34.5237L196.497 27.9895C193.404 23.0973 189.269 19.2773 184.093 16.5296C178.983 13.7819 172.999 12.408 166.142 12.408C160.831 12.408 155.889 13.3127 151.317 15.1222C146.813 16.8646 142.88 19.3443 139.518 22.5611C136.224 25.7779 133.636 29.6315 131.753 34.1216C129.938 38.5448 129.03 43.437 129.03 48.7985C129.03 54.1599 129.938 59.0855 131.753 63.5756C133.569 68.0661 136.123 71.9529 139.418 75.2369C142.779 78.5209 146.712 81.0671 151.216 82.8769C155.721 84.6192 160.629 85.4906 165.94 85.4906C171.588 85.4906 176.596 84.4851 180.966 82.4747C185.336 80.3972 189 77.5825 191.959 74.0304C194.917 70.4787 197.135 66.4241 198.614 61.867C200.094 57.2428 200.766 52.3502 200.631 47.1902H172.406L170.966 57.2428Z" fill="#717485"/>
<path d="M233.41 49.4017L238.755 40.1532C237.68 38.9469 236.402 38.0757 234.923 37.5395C233.444 37.0034 231.864 36.7353 230.183 36.7353C228.234 36.7353 226.317 37.3385 224.435 38.5448C222.552 39.6841 220.939 41.2925 219.594 43.37V37.7406H208.804V83.9826H219.594V57.9464C219.594 54.5954 220.199 51.9147 221.41 49.9042C222.62 47.8938 224.57 46.8884 227.259 46.8884C228.604 46.8884 229.713 47.1232 230.587 47.592C231.461 47.9941 232.402 48.5974 233.41 49.4017Z" fill="#717485"/>
<path d="M244.213 37.7406V83.9826H254.903V37.7406H244.213ZM242.7 20.7791C242.7 22.6556 243.372 24.2305 244.717 25.5038C246.062 26.7771 247.675 27.4138 249.558 27.4138C251.508 27.4138 253.154 26.7771 254.499 25.5038C255.844 24.2305 256.516 22.6556 256.516 20.7791C256.516 18.9026 255.844 17.3277 254.499 16.0543C253.154 14.781 251.508 14.1443 249.558 14.1443C247.675 14.1443 246.062 14.781 244.717 16.0543C243.372 17.3277 242.7 18.9026 242.7 20.7791Z" fill="#717485"/>
<path d="M273.191 60.8615C273.191 56.2374 274.569 52.652 277.325 50.1053C280.082 47.4916 283.343 46.1848 287.107 46.1848C289.192 46.1848 291.242 46.7543 293.259 47.8938C295.276 49.0329 296.957 50.7086 298.302 52.9201C299.646 55.0646 300.318 57.7116 300.318 60.8615C300.318 64.0114 299.646 66.6922 298.302 68.9037C296.957 71.0482 295.276 72.6902 293.259 73.8293C291.242 74.9687 289.192 75.5383 287.107 75.5383C283.343 75.5383 280.082 74.2652 277.325 71.7185C274.569 69.1048 273.191 65.4857 273.191 60.8615ZM261.896 60.8615C261.896 65.9549 262.938 70.3109 265.022 73.93C267.106 77.4817 269.863 80.2294 273.292 82.1733C276.721 84.0497 280.452 84.9876 284.486 84.9876C287.847 84.9876 290.872 84.2507 293.562 82.7761C296.318 81.2349 298.571 79.0904 300.318 76.3426V83.9826H311.311V8.87225H300.318V45.3804C298.571 42.6327 296.318 40.5218 293.562 39.0474C290.872 37.506 287.847 36.7353 284.486 36.7353C280.452 36.7353 276.721 37.7071 273.292 39.6506C269.863 41.527 267.106 44.2747 265.022 47.8938C262.938 51.4455 261.896 55.7682 261.896 60.8615Z" fill="#717485"/>
<path d="M323.689 67.2955L317.336 73.4275C319.487 76.8451 322.345 79.6937 325.908 81.9722C329.538 84.2508 333.606 85.3898 338.11 85.3898C343.018 85.3898 347.019 84.217 350.111 81.8715C353.271 79.4588 354.851 75.8064 354.851 70.9142C354.851 68.1664 354.246 65.9216 353.036 64.1788C351.826 62.4365 350.246 60.9956 348.296 59.8561C346.346 58.65 344.262 57.6113 342.043 56.7399C340.296 56.003 338.514 55.3327 336.699 54.7295C334.95 54.1262 333.505 53.4226 332.362 52.6183C331.219 51.8143 330.648 50.7756 330.648 49.5021C330.648 48.0949 331.186 47.0895 332.261 46.4862C333.404 45.8163 334.917 45.4812 336.8 45.4812C338.682 45.4812 340.632 46.0174 342.649 47.0895C344.733 48.1619 346.548 49.5358 348.094 51.2111L354.145 44.9783C352.397 42.6327 349.91 40.6894 346.683 39.1479C343.523 37.5395 340.06 36.7353 336.295 36.7353C333.539 36.7353 330.951 37.2379 328.53 38.2432C326.11 39.2484 324.16 40.6893 322.681 42.5657C321.202 44.4425 320.462 46.721 320.462 49.4017C320.462 52.2835 321.101 54.6291 322.378 56.4385C323.723 58.1808 325.404 59.5884 327.421 60.6605C329.438 61.7329 331.522 62.7046 333.673 63.5756C336.362 64.581 338.715 65.6535 340.733 66.7925C342.817 67.932 343.859 69.507 343.859 71.5174C343.859 73.0587 343.287 74.2314 342.144 75.0358C341.069 75.7731 339.556 76.1416 337.606 76.1416C335.589 76.1416 333.303 75.3372 330.749 73.7289C328.261 72.0536 325.908 69.9087 323.689 67.2955Z" fill="#717485"/>
<path d="M370.598 60.8615C370.598 56.5055 371.91 52.9871 374.532 50.3064C377.221 47.6257 380.515 46.2851 384.415 46.2851C388.381 46.2851 391.675 47.6257 394.298 50.3064C396.92 52.9871 398.23 56.5055 398.23 60.8615C398.23 65.1505 396.92 68.6689 394.298 71.4167C391.675 74.0974 388.381 75.438 384.415 75.438C380.515 75.438 377.221 74.0974 374.532 71.4167C371.91 68.6689 370.598 65.1505 370.598 60.8615ZM359.405 60.8615C359.405 65.6197 360.48 69.8084 362.632 73.4275C364.85 77.0462 367.842 79.8943 371.607 81.9722C375.439 83.9826 379.708 84.9876 384.415 84.9876C389.188 84.9876 393.457 83.9826 397.222 81.9722C400.987 79.8943 403.945 77.0462 406.096 73.4275C408.315 69.8084 409.424 65.6197 409.424 60.8615C409.424 56.1033 408.315 51.9147 406.096 48.296C403.945 44.6768 400.987 41.8621 397.222 39.8516C393.457 37.7741 389.188 36.7353 384.415 36.7353C379.708 36.7353 375.439 37.7741 371.607 39.8516C367.842 41.8621 364.85 44.6768 362.632 48.296C360.48 51.9147 359.405 56.1033 359.405 60.8615Z" fill="#717485"/>
<path d="M482.184 54.6291C482.184 48.7985 480.973 44.3754 478.551 41.3595C476.134 38.2767 472.402 36.7353 467.358 36.7353C464.266 36.7353 461.442 37.4725 458.887 38.9469C456.331 40.3542 454.283 42.3313 452.737 44.8779C450.651 39.4495 446.214 36.7353 439.423 36.7353C436.399 36.7353 433.776 37.439 431.56 38.8464C429.407 40.2537 427.693 42.1302 426.416 44.4758V37.7406H415.725V83.9826H426.416V55.8352C426.416 52.7523 427.186 50.2727 428.736 48.3963C430.349 46.4529 432.633 45.4812 435.59 45.4812C438.418 45.4812 440.399 46.3859 441.543 48.1952C442.687 49.9375 443.257 52.4842 443.257 55.8352V83.9826H454.249V55.8352C454.249 52.7523 455.02 50.2727 456.57 48.3963C458.183 46.4529 460.466 45.4812 463.424 45.4812C466.252 45.4812 468.233 46.3859 469.377 48.1952C470.588 49.9375 471.191 52.4842 471.191 55.8352V83.9826H482.184V54.6291Z" fill="#717485"/>
<path d="M500.051 63.3749H537.063C537.13 62.8387 537.164 62.3024 537.164 61.7662C537.231 61.23 537.264 60.7612 537.264 60.359C537.264 53.0542 534.173 47.2905 530.004 43.0686C525.903 38.8464 520.256 36.7353 513.063 36.7353C506.406 36.7353 500.994 38.5113 496.825 42.0631C492.724 45.6152 490.202 50.2394 489.264 55.936C489.125 56.7399 489.025 57.5442 488.958 58.3486C488.891 59.1525 488.857 59.9902 488.857 60.8615C488.857 65.4857 489.833 69.641 491.781 73.3268C493.734 76.9459 496.49 79.794 500.051 81.8714C503.616 83.9489 507.784 84.9876 512.556 84.9876C518.337 84.9876 523.08 83.8486 526.775 81.57C530.541 79.2915 534.575 76.2756 536.862 72.5224L526.372 68.7026C525.028 70.9812 523.247 72.7905 521.027 74.1311C518.878 75.4042 516.222 76.0408 513.063 76.0408C509.498 76.0408 506.54 75.0021 504.186 72.9246C501.836 70.7801 500.457 67.5969 500.051 63.3749ZM500.252 55.8352C500.725 52.4172 502.137 49.7702 504.487 47.8938C506.842 45.9504 509.665 44.9783 512.962 44.9783C516.456 44.9783 519.146 45.9504 521.027 47.8938C522.912 49.8372 524.056 52.4842 524.458 55.8352H500.252Z" fill="#717485"/>
<defs>
<linearGradient id="paint0_linear" x1="51.3285" y1="41.7022" x2="51.3285" y2="101.897" gradientUnits="userSpaceOnUse">
<stop stop-color="#444650"/>
<stop offset="1" stop-color="#666878"/>
</linearGradient>
</defs>
</svg>
