<svg width="3700" height="1000" viewBox="0 0 3700 1000" fill="none" xmlns="http://www.w3.org/2000/svg">
<path d="M728.719 515.423C728.719 526.234 728.15 537.045 727.013 547.855C722.367 601.675 594.656 579.004 530.178 541.243C499.907 523.515 509.421 520.382 504.503 490.428C500.815 467.963 492.736 448.779 489.204 443.163C467.016 407.887 454.5 365.782 454.5 321.402C454.5 302.626 456.775 283.85 461.327 266.211C469.291 233.211 484.652 202.486 505.702 176.882C529.028 147.864 559.181 124.536 594.454 109.743C593.316 118.277 592.747 126.812 592.747 135.916C592.747 188.831 610.953 237.763 641.105 277.022C643.95 280.436 646.226 283.85 649.07 286.695C649.07 286.695 649.07 287.264 649.639 287.264C657.604 297.505 665.569 308.316 672.396 319.695C702.549 368.058 722.461 423.818 727.581 483.561C727.581 485.268 727.581 486.406 727.581 488.113C727.581 494.371 728.15 501.199 728.719 507.458C728.719 509.734 728.719 512.579 728.719 515.423Z" fill="url(#paint0_linear)"/>
<path d="M594.454 109.743C594.454 109.743 522.77 231.504 585.92 311.73C649.07 391.955 722.461 566.062 714.496 568.907C706.531 571.752 753.752 449.991 680.93 333.351C608.108 216.71 612.091 199.641 594.454 109.743Z" fill="url(#paint1_linear)"/>
<path d="M463.101 498.354C463.101 548.993 421.57 590.529 370.936 590.529C320.302 590.529 278.771 548.993 278.771 498.354C278.771 465.354 295.839 436.905 321.44 420.404C324.854 418.128 328.267 416.422 331.681 414.715C351.024 402.197 365.816 382.852 371.505 360.093C372.074 357.817 372.643 355.541 373.212 352.696C373.781 354.972 373.781 357.817 374.35 360.093C378.901 382.283 391.986 401.628 409.623 414.715C414.174 418.128 419.294 421.542 424.984 423.818C448.309 440.888 463.101 468.198 463.101 498.354Z" fill="url(#paint2_linear)"/>
<path d="M735.614 478.874V474.322C736.358 451.447 742.633 429.97 753.168 411.202C754.25 406.896 755.411 402.705 756.664 398.648C788.609 346.451 834.787 337.313 852.706 335.774C818.249 315.236 778.624 303.629 735.614 303.629C716.84 303.629 698.635 305.905 680.998 310.456C588.264 333.215 517.718 411.734 506.908 508.46C506.908 513.581 506.339 519.271 505.77 524.392C501.593 555.201 487.113 582.896 465.903 603.846L550.715 747.431C550.715 747.431 667.344 685.412 712.289 634.204C725.391 608.521 731.252 571.369 735.874 531.924C736.456 523.421 736.752 514.838 736.752 506.185V498.219C736.183 491.96 735.614 485.132 735.614 478.874Z" fill="url(#paint3_linear)"/>
<path d="M244.382 566.158L217.328 570.479L71.6841 498.788L105.909 248.062C140.118 207.937 161.005 155.841 161.005 98.797C161.005 64.6584 153.609 32.7957 141.092 4.3468C225.861 11.7435 297.545 65.2274 330.543 139.763C343.628 168.212 350.455 200.075 350.455 233.645C350.455 249.576 348.748 264.369 345.904 279.163C336.232 328.095 310.631 371.337 275.358 403.769C266.255 411.735 258.29 421.407 252.032 431.649C238.378 453.27 230.413 478.305 230.413 505.616C230.413 527.316 235.436 547.864 244.382 566.158Z" fill="url(#paint4_linear)"/>
<path d="M735.615 478.874V474.322C737.844 405.76 789.763 349.757 857.135 341.625C857.581 340.736 857.981 339.939 858.333 339.236C854.773 336.976 851.156 334.814 847.482 332.751C816.398 326.965 735.387 317.467 683.843 362.234C618.986 418.562 585.419 649.567 591.109 670.619C592.279 674.952 593.474 682.056 594.882 690.424C600.314 722.715 608.91 773.823 631.502 757.104C642.982 748.608 682.445 678.301 725.435 597.458C732.828 568.283 736.752 537.7 736.752 506.185V498.219C736.183 491.96 735.615 485.132 735.615 478.874Z" fill="url(#paint5_linear)"/>
<path d="M142.108 1C158.194 18.7346 258.212 133.195 230.982 208.61C221.342 235.307 202.34 269.374 182.202 305.477C140.537 380.173 94.0126 463.582 115.491 508.461C138.4 556.329 50.9982 528.002 0.0814905 508.307C0.0272585 505.71 0 503.105 0 500.495C0 476.029 2.27568 452.132 6.82705 428.804C19.9122 363.371 50.065 303.629 93.303 255.835L93.8719 255.266C95.5787 253.559 97.2854 251.71 98.9922 249.861C100.699 248.011 102.406 246.162 104.112 244.455C139.386 204.058 161.005 151.143 161.005 93.1073C161.005 59.9028 154.008 28.8513 142.108 1Z" fill="url(#paint6_linear)"/>
<path d="M497.598 557.564C533.544 543.964 566.776 524.952 596.229 501.655C597.936 500.518 599.642 498.811 601.349 497.104C624.674 479.466 653.69 468.655 684.98 468.655C702.048 468.655 719.116 472.069 734.477 477.758C735.614 488 735.615 497.673 735.615 507.345C735.615 596.675 703.755 678.038 651.414 741.764C583.713 823.697 481.876 875.474 367.523 875.474C288.088 875.474 214.434 850.265 154.229 807.367C60.8361 740.546 0 631.258 0 507.914C0 488.173 1.48157 468.803 4.44471 449.803C11.1427 448.715 18.3721 448.172 25.6014 448.172C59.7366 448.172 91.0273 460.689 114.922 481.172C116.06 482.31 117.34 483.448 118.62 484.586C119.9 485.724 121.18 486.862 122.318 488L122.887 488.569C156.902 519.007 196.707 543.028 240.415 558.99C260.912 609.723 310.672 645.607 368.661 645.607C427.249 645.607 477.463 608.912 497.598 557.564Z" fill="url(#paint7_linear)"/>
<path d="M726.511 586.433C694.652 727.54 581.437 837.921 438.638 865.801C415.312 870.353 391.417 872.629 366.954 872.629C211.638 872.629 78.5109 776.472 24.4635 640.486C47.7892 635.934 71.6839 633.658 96.1475 633.658C153.04 633.658 207.087 646.745 255.445 670.073C263.979 675.194 272.513 679.746 281.616 684.297C329.974 707.625 384.021 720.712 440.913 720.712C556.973 720.712 658.81 668.366 726.511 586.433Z" fill="url(#paint8_linear)"/>
<path d="M2616.89 158.596H2763.36V264.351H2616.89V158.596ZM2627.85 450.919H2557.11L2569.07 351.15H2762.36V824.055H2627.85V450.919Z" fill="url(#paint9_linear)"/>
<path d="M2903.14 454.91H2837.38V351.15H2903.14V303.261C2903.14 252.711 2917.42 212.139 2945.99 181.543C2974.55 150.947 3015.4 135.649 3068.54 135.649C3107.73 135.649 3143.27 141.968 3175.15 154.605V247.39C3154.56 240.074 3134.63 236.416 3115.37 236.416C3086.81 236.416 3066.55 241.737 3054.59 252.379C3043.3 262.356 3037.65 279.981 3037.65 305.256V351.15H3157.22L3151.24 454.91H3037.65V824.055H2903.14V454.91Z" fill="url(#paint10_linear)"/>
<path d="M3287.83 999.649C3246.65 999.649 3212.77 994.328 3186.2 983.686V888.905C3204.8 895.557 3225.06 898.882 3246.98 898.882C3273.55 898.882 3294.14 892.896 3308.75 880.924C3324.03 868.951 3339.64 847.335 3355.58 816.074L3144.35 351.15H3284.84L3423.34 672.406L3560.84 351.15H3700.33L3514.01 791.132C3484.78 860.97 3453.23 913.182 3419.35 947.769C3385.48 982.356 3341.64 999.649 3287.83 999.649Z" fill="url(#paint11_linear)"/>
<path d="M1158.33 181.64H1438.56C1505.99 181.64 1557.03 201.916 1591.67 242.467C1626.31 283.019 1643.63 336.534 1643.63 403.012C1643.63 446.222 1634.97 484.447 1617.65 517.686C1600.95 550.925 1576.82 576.852 1545.27 595.465C1513.72 613.414 1476.92 622.389 1434.85 622.389H1283.6V823.817H1158.33V181.64ZM1408.87 515.692C1444.13 515.692 1471.04 505.72 1489.6 485.777C1508.16 465.833 1517.44 438.245 1517.44 403.012C1517.44 365.784 1508.78 337.531 1491.45 318.252C1474.13 298.309 1448.15 288.337 1413.51 288.337H1283.6V515.692H1408.87Z" fill="url(#paint12_linear)"/>
<path d="M1842.67 833.789C1789.47 833.789 1748.33 817.834 1719.26 785.925C1690.18 754.015 1675.65 707.813 1675.65 647.318V351.159H1800.91V644.327C1800.91 675.571 1807.72 698.506 1821.33 713.131C1835.56 727.757 1857.21 735.069 1886.28 735.069C1907.32 735.069 1926.8 730.748 1944.74 722.106C1963.3 712.799 1979.38 700.833 1992.99 686.208V351.159H2118.26V823.817H2002.27L1997.63 778.945C1954.95 815.507 1903.29 833.789 1842.67 833.789Z" fill="url(#paint13_linear)"/>
<path d="M2204.85 351.15H2329.4L2335.38 400.037C2357.3 386.069 2383.87 373.764 2415.09 363.122C2446.31 352.48 2477.19 345.164 2507.75 341.173V442.937C2479.19 446.928 2448.63 453.912 2416.08 463.889C2383.53 473.201 2357.96 483.178 2339.36 493.82V824.055H2204.85V351.15Z" fill="url(#paint14_linear)"/>
<defs>
<linearGradient id="paint0_linear" x1="615.542" y1="616.725" x2="521.103" y2="-193.496" gradientUnits="userSpaceOnUse">
<stop offset="0.296875" stop-color="white"/>
<stop offset="0.640625" stop-color="#E1E1E1"/>
</linearGradient>
<linearGradient id="paint1_linear" x1="729.339" y1="583.021" x2="501.566" y2="-35.7073" gradientUnits="userSpaceOnUse">
<stop offset="0.3108" stop-color="white"/>
<stop offset="0.494792" stop-color="#E1E1E1"/>
</linearGradient>
<linearGradient id="paint2_linear" x1="366.862" y1="683.943" x2="375.52" y2="301.312" gradientUnits="userSpaceOnUse">
<stop offset="0.1065" stop-color="white"/>
<stop offset="0.8186" stop-color="#E1E1E1"/>
</linearGradient>
<linearGradient id="paint3_linear" x1="572.756" y1="742.962" x2="826.997" y2="-44.6815" gradientUnits="userSpaceOnUse">
<stop stop-color="#E1E1E1"/>
<stop offset="0.6415" stop-color="white"/>
</linearGradient>
<linearGradient id="paint4_linear" x1="155.849" y1="779.989" x2="328.176" y2="-58.0296" gradientUnits="userSpaceOnUse">
<stop offset="0.1722" stop-color="white"/>
<stop offset="1" stop-color="#E1E1E1"/>
</linearGradient>
<linearGradient id="paint5_linear" x1="624.547" y1="773.084" x2="802.12" y2="220.53" gradientUnits="userSpaceOnUse">
<stop offset="0.351" stop-color="white"/>
</linearGradient>
<linearGradient id="paint6_linear" x1="215.045" y1="880.691" x2="3.31689" y2="-136.262" gradientUnits="userSpaceOnUse">
<stop offset="0.171875" stop-color="white"/>
<stop offset="0.57232" stop-color="#E1E1E1"/>
</linearGradient>
<linearGradient id="paint7_linear" x1="374.165" y1="1032.26" x2="327.498" y2="292.5" gradientUnits="userSpaceOnUse">
<stop offset="0.453593" stop-color="white"/>
<stop offset="0.689236" stop-color="#E1E1E1"/>
</linearGradient>
<linearGradient id="paint8_linear" x1="400.275" y1="976.859" x2="353.131" y2="276.782" gradientUnits="userSpaceOnUse">
<stop offset="0.0380705" stop-color="white"/>
<stop offset="0.732114" stop-color="#E1E1E1"/>
</linearGradient>
<linearGradient id="paint9_linear" x1="2372.82" y1="-273.404" x2="2372.82" y2="1218.26" gradientUnits="userSpaceOnUse">
<stop stop-color="white"/>
</linearGradient>
<linearGradient id="paint10_linear" x1="2372.82" y1="-273.404" x2="2372.82" y2="1218.26" gradientUnits="userSpaceOnUse">
<stop stop-color="white"/>
</linearGradient>
<linearGradient id="paint11_linear" x1="2372.82" y1="-273.404" x2="2372.82" y2="1218.26" gradientUnits="userSpaceOnUse">
<stop stop-color="white"/>
</linearGradient>
<linearGradient id="paint12_linear" x1="2372.82" y1="-273.404" x2="2372.82" y2="1218.26" gradientUnits="userSpaceOnUse">
<stop stop-color="white"/>
</linearGradient>
<linearGradient id="paint13_linear" x1="2372.82" y1="-273.404" x2="2372.82" y2="1218.26" gradientUnits="userSpaceOnUse">
<stop stop-color="white"/>
</linearGradient>
<linearGradient id="paint14_linear" x1="2372.82" y1="-273.404" x2="2372.82" y2="1218.26" gradientUnits="userSpaceOnUse">
<stop stop-color="white"/>
</linearGradient>
</defs>
</svg>
