<svg width="3700" height="1000" viewBox="0 0 3700 1000" fill="none" xmlns="http://www.w3.org/2000/svg">
<path d="M2616.89 158.596H2763.36V264.351H2616.89V158.596ZM2627.85 450.919H2557.11L2569.07 351.15H2762.36V824.055H2627.85V450.919Z" fill="url(#paint0_linear)"/>
<path d="M2903.14 454.91H2837.38V351.15H2903.14V303.261C2903.14 252.711 2917.42 212.139 2945.99 181.543C2974.55 150.947 3015.4 135.649 3068.54 135.649C3107.73 135.649 3143.27 141.968 3175.15 154.605V247.39C3154.56 240.074 3134.63 236.416 3115.37 236.416C3086.81 236.416 3066.55 241.737 3054.59 252.379C3043.3 262.356 3037.65 279.981 3037.65 305.256V351.15H3157.22L3151.24 454.91H3037.65V824.055H2903.14V454.91Z" fill="url(#paint1_linear)"/>
<path d="M3287.83 999.649C3246.65 999.649 3212.77 994.328 3186.2 983.686V888.905C3204.8 895.557 3225.06 898.882 3246.98 898.882C3273.55 898.882 3294.14 892.896 3308.75 880.924C3324.03 868.951 3339.64 847.335 3355.58 816.074L3144.35 351.15H3284.84L3423.34 672.406L3560.84 351.15H3700.33L3514.01 791.132C3484.78 860.97 3453.23 913.182 3419.35 947.769C3385.48 982.356 3341.64 999.649 3287.83 999.649Z" fill="url(#paint2_linear)"/>
<path d="M1158.33 181.64H1438.56C1505.99 181.64 1557.03 201.916 1591.67 242.467C1626.31 283.019 1643.63 336.534 1643.63 403.012C1643.63 446.222 1634.97 484.447 1617.65 517.686C1600.95 550.925 1576.82 576.852 1545.27 595.465C1513.72 613.414 1476.92 622.389 1434.85 622.389H1283.6V823.817H1158.33V181.64ZM1408.87 515.692C1444.13 515.692 1471.04 505.72 1489.6 485.777C1508.16 465.833 1517.44 438.245 1517.44 403.012C1517.44 365.784 1508.78 337.531 1491.45 318.252C1474.13 298.309 1448.15 288.337 1413.51 288.337H1283.6V515.692H1408.87Z" fill="url(#paint3_linear)"/>
<path d="M1842.67 833.789C1789.47 833.789 1748.33 817.834 1719.26 785.925C1690.18 754.015 1675.65 707.813 1675.65 647.318V351.159H1800.91V644.327C1800.91 675.571 1807.72 698.506 1821.33 713.131C1835.56 727.757 1857.21 735.069 1886.28 735.069C1907.32 735.069 1926.8 730.748 1944.74 722.106C1963.3 712.799 1979.38 700.833 1992.99 686.208V351.159H2118.26V823.817H2002.27L1997.63 778.945C1954.95 815.507 1903.29 833.789 1842.67 833.789Z" fill="url(#paint4_linear)"/>
<path d="M2204.85 351.15H2329.4L2335.38 400.037C2357.3 386.069 2383.87 373.764 2415.09 363.122C2446.31 352.48 2477.19 345.164 2507.75 341.173V442.937C2479.19 446.928 2448.63 453.912 2416.08 463.889C2383.53 473.201 2357.96 483.178 2339.36 493.82V824.055H2204.85V351.15Z" fill="url(#paint5_linear)"/>
<path d="M728.717 513.149C728.717 523.959 728.148 534.77 727.01 545.58C722.364 599.4 594.654 576.729 530.177 538.968C499.905 521.24 509.42 518.108 504.502 488.154C500.813 465.688 492.734 446.504 489.202 440.889C467.014 405.612 454.498 363.508 454.498 319.128C454.498 300.352 456.774 281.576 461.325 263.937C469.29 230.937 484.651 200.212 505.701 174.608C529.026 145.591 559.179 122.263 594.452 107.469C593.314 116.004 592.745 124.539 592.745 133.642C592.745 186.557 610.951 235.489 641.104 274.748C643.948 278.162 646.224 281.576 649.068 284.421C649.068 284.421 649.068 284.99 649.637 284.99C657.602 295.231 665.567 306.042 672.394 317.421C702.547 365.784 722.459 421.544 727.579 481.286C727.579 482.993 727.579 484.131 727.579 485.838C727.579 492.097 728.148 498.924 728.717 505.183C728.717 507.459 728.717 510.304 728.717 513.149Z" fill="url(#paint6_linear)"/>
<path d="M594.452 107.469C594.452 107.469 522.768 229.23 585.918 309.456C649.068 389.681 722.459 563.788 714.494 566.632C706.529 569.477 753.75 447.717 680.928 331.077C608.106 214.437 612.089 197.367 594.452 107.469Z" fill="url(#paint7_linear)"/>
<path d="M463.1 496.079C463.1 546.718 421.569 588.253 370.935 588.253C320.301 588.253 278.77 546.718 278.77 496.079C278.77 463.079 295.838 434.63 321.439 418.129C324.853 415.854 328.266 414.147 331.68 412.44C351.023 399.922 365.815 380.577 371.504 357.818C372.073 355.542 372.642 353.266 373.211 350.421C373.78 352.697 373.78 355.542 374.349 357.818C378.9 380.008 391.985 399.353 409.622 412.44C414.173 415.854 419.293 419.267 424.982 421.543C448.308 438.613 463.1 465.923 463.1 496.079Z" fill="url(#paint8_linear)"/>
<path d="M735.612 477.872V473.32C736.356 450.445 742.631 428.968 753.166 410.201C754.247 405.894 755.409 401.703 756.662 397.646C788.607 345.45 834.784 336.312 852.704 334.773C818.247 314.234 778.622 302.627 735.612 302.627C716.838 302.627 698.632 304.903 680.996 309.455C588.262 332.214 517.716 410.733 506.907 507.459C506.907 512.579 506.338 518.269 505.769 523.39C501.592 554.199 487.112 581.894 465.902 602.844L550.714 746.428C550.714 746.428 667.342 684.41 712.286 633.202C725.389 607.519 731.249 570.367 735.872 530.922C736.454 522.419 736.75 513.836 736.75 505.183V497.217C736.181 490.958 735.612 484.131 735.612 477.872Z" fill="url(#paint9_linear)"/>
<path d="M244.381 565.156L217.327 569.477L71.6838 497.786L105.909 247.061C140.118 206.936 161.004 154.84 161.004 97.7966C161.004 63.6581 153.608 31.7955 141.092 3.34668C225.861 10.7434 297.545 64.2271 330.542 138.763C343.627 167.212 350.454 199.074 350.454 232.644C350.454 248.575 348.747 263.369 345.903 278.162C336.231 327.094 310.63 370.336 275.357 402.767C266.254 410.733 258.289 420.406 252.031 430.647C238.377 452.268 230.412 477.303 230.412 504.614C230.412 526.314 235.436 546.862 244.381 565.156Z" fill="url(#paint10_linear)"/>
<path d="M735.612 477.872V473.32C737.842 404.758 789.76 348.756 857.132 340.624C857.578 339.735 857.978 338.937 858.33 338.235C854.771 335.975 851.153 333.812 847.479 331.749C816.395 325.964 735.385 316.465 683.84 361.232C618.984 417.561 585.418 648.565 591.107 669.617C592.278 673.949 593.473 681.054 594.88 689.421C600.312 721.712 608.908 772.82 631.5 756.101C642.98 747.605 682.443 677.299 725.433 596.456C732.826 567.281 736.75 536.697 736.75 505.183V497.217C736.181 490.958 735.612 484.131 735.612 477.872Z" fill="url(#paint11_linear)"/>
<path d="M142.108 0C158.194 17.7345 258.211 132.195 230.981 207.609C221.341 234.306 202.339 268.373 182.201 304.476C140.537 379.171 94.0123 462.58 115.491 507.459C138.4 555.327 50.998 527 0.0814903 507.306C0.0272584 504.708 0 502.104 0 499.493C0 475.027 2.27568 451.13 6.82703 427.802C19.9122 362.37 50.0649 302.628 93.3027 254.834L93.8716 254.265C95.5784 252.558 97.2851 250.709 98.9919 248.86C100.699 247.011 102.405 245.161 104.112 243.454C139.385 203.057 161.004 150.142 161.004 92.107C161.004 58.9026 154.007 27.8512 142.108 0Z" fill="url(#paint12_linear)"/>
<path d="M497.596 554.833C533.542 541.233 566.775 522.221 596.227 498.925C597.934 497.787 599.64 496.08 601.347 494.373C624.673 476.735 653.688 465.924 684.978 465.924C702.046 465.924 719.114 469.338 734.474 475.028C735.612 485.269 735.612 494.942 735.612 504.614C735.612 593.944 703.753 675.307 651.412 739.032C583.711 820.965 481.874 872.742 367.522 872.742C288.087 872.742 214.434 847.533 154.228 804.635C60.8359 737.814 7.62939e-06 628.527 7.62939e-06 505.183C7.62939e-06 485.442 1.48157 466.072 4.4447 447.072C11.1427 445.985 18.372 445.441 25.6013 445.441C59.7365 445.441 91.027 457.958 114.922 478.442C116.059 479.579 117.34 480.717 118.62 481.855C119.9 482.993 121.18 484.131 122.318 485.269L122.886 485.838C156.902 516.276 196.707 540.297 240.414 556.259C260.911 606.992 310.671 642.875 368.66 642.875C427.248 642.875 477.462 606.181 497.596 554.833Z" fill="url(#paint13_linear)"/>
<path d="M726.509 583.702C694.65 724.808 581.435 835.189 438.636 863.069C415.311 867.62 391.416 869.896 366.953 869.896C211.638 869.896 78.5108 773.739 24.4635 637.754C47.7891 633.203 71.6837 630.927 96.1472 630.927C153.039 630.927 207.086 644.013 255.445 667.341C263.978 672.462 272.512 677.014 281.615 681.565C329.973 704.893 384.02 717.98 440.912 717.98C556.972 717.98 658.808 665.634 726.509 583.702Z" fill="url(#paint14_linear)"/>
<defs>
<linearGradient id="paint0_linear" x1="2372.82" y1="-273.404" x2="2372.82" y2="1218.26" gradientUnits="userSpaceOnUse">
<stop stop-color="#1D5B59"/>
</linearGradient>
<linearGradient id="paint1_linear" x1="2372.82" y1="-273.404" x2="2372.82" y2="1218.26" gradientUnits="userSpaceOnUse">
<stop stop-color="#1D5B59"/>
</linearGradient>
<linearGradient id="paint2_linear" x1="2372.82" y1="-273.404" x2="2372.82" y2="1218.26" gradientUnits="userSpaceOnUse">
<stop stop-color="#1D5B59"/>
</linearGradient>
<linearGradient id="paint3_linear" x1="2372.82" y1="-273.404" x2="2372.82" y2="1218.26" gradientUnits="userSpaceOnUse">
<stop stop-color="#1D5B59"/>
</linearGradient>
<linearGradient id="paint4_linear" x1="2372.82" y1="-273.404" x2="2372.82" y2="1218.26" gradientUnits="userSpaceOnUse">
<stop stop-color="#1D5B59"/>
</linearGradient>
<linearGradient id="paint5_linear" x1="2372.82" y1="-273.404" x2="2372.82" y2="1218.26" gradientUnits="userSpaceOnUse">
<stop stop-color="#1D5B59"/>
</linearGradient>
<linearGradient id="paint6_linear" x1="615.54" y1="614.45" x2="521.101" y2="-195.768" gradientUnits="userSpaceOnUse">
<stop offset="0.1587" stop-color="#317068"/>
<stop offset="0.4061" stop-color="#3EA49B"/>
<stop offset="0.9328" stop-color="#79A59D"/>
</linearGradient>
<linearGradient id="paint7_linear" x1="729.337" y1="580.746" x2="501.565" y2="-37.9803" gradientUnits="userSpaceOnUse">
<stop offset="0.3108" stop-color="#317068"/>
<stop offset="0.6385" stop-color="#3EA49B"/>
</linearGradient>
<linearGradient id="paint8_linear" x1="366.861" y1="681.667" x2="375.519" y2="299.037" gradientUnits="userSpaceOnUse">
<stop offset="0.1065" stop-color="#317068"/>
<stop offset="0.455" stop-color="#3EA49B"/>
<stop offset="0.8186" stop-color="#79A59D"/>
</linearGradient>
<linearGradient id="paint9_linear" x1="572.754" y1="741.96" x2="826.995" y2="-45.6816" gradientUnits="userSpaceOnUse">
<stop stop-color="#317068"/>
<stop offset="0.2349" stop-color="#3EA49B"/>
<stop offset="0.6415" stop-color="#A6B19D"/>
</linearGradient>
<linearGradient id="paint10_linear" x1="155.849" y1="778.986" x2="328.175" y2="-59.0296" gradientUnits="userSpaceOnUse">
<stop stop-color="#317068"/>
<stop offset="0.1722" stop-color="#337A72"/>
<stop offset="0.4623" stop-color="#3A948C"/>
<stop offset="0.608" stop-color="#3EA49B"/>
<stop offset="0.7023" stop-color="#43A49B"/>
<stop offset="0.8153" stop-color="#52A49C"/>
<stop offset="0.9372" stop-color="#6AA59C"/>
<stop offset="1" stop-color="#79A59D"/>
</linearGradient>
<linearGradient id="paint11_linear" x1="624.546" y1="772.081" x2="802.117" y2="219.529" gradientUnits="userSpaceOnUse">
<stop offset="0.351" stop-color="#317068"/>
<stop offset="0.4876" stop-color="#3EA49B"/>
<stop offset="0.8104" stop-color="#A6B19D"/>
</linearGradient>
<linearGradient id="paint12_linear" x1="215.045" y1="879.688" x2="3.31684" y2="-137.262" gradientUnits="userSpaceOnUse">
<stop offset="0.2837" stop-color="#317068"/>
<stop offset="0.6441" stop-color="#3EA49B"/>
</linearGradient>
<linearGradient id="paint13_linear" x1="374.164" y1="1029.53" x2="364.68" y2="292.767" gradientUnits="userSpaceOnUse">
<stop offset="0.2209" stop-color="#2C6059"/>
<stop offset="0.2969" stop-color="#317068"/>
<stop offset="0.6311" stop-color="#3EA49B"/>
</linearGradient>
<linearGradient id="paint14_linear" x1="400.274" y1="974.126" x2="353.13" y2="274.052" gradientUnits="userSpaceOnUse">
<stop offset="0.0380705" stop-color="#2C6059"/>
<stop offset="0.4473" stop-color="#3EA49B"/>
</linearGradient>
</defs>
</svg>
