<svg width="24" height="22" viewBox="0 0 24 22" fill="none" xmlns="http://www.w3.org/2000/svg">
<path d="M17.8431 9.0797L19.8326 5.60994C19.9449 5.41542 19.877 5.16833 19.6864 5.0553C19.4958 4.94227 19.2477 5.00798 19.1381 5.2025L17.1225 8.71696C15.5846 8.00986 13.8536 7.61557 11.992 7.61557C10.1304 7.61557 8.39935 8.00986 6.86151 8.71696L4.84588 5.2025C4.73361 5.00798 4.48818 4.94227 4.29497 5.0553C4.10176 5.16833 4.03649 5.41542 4.14876 5.60994L6.13829 9.0797C2.70753 10.9513 0.383806 14.4473 0 18.5401H23.984C23.6002 14.4473 21.2764 10.9513 17.8431 9.0797ZM6.48554 15.1492C5.92941 15.1492 5.48033 14.6944 5.48033 14.1372C5.48033 13.5773 5.93202 13.1251 6.48554 13.1251C7.04167 13.1251 7.49075 13.5799 7.49075 14.1372C7.49337 14.6944 7.04167 15.1492 6.48554 15.1492ZM17.4958 15.1492C16.9397 15.1492 16.4906 14.6944 16.4906 14.1372C16.4906 13.5773 16.9423 13.1251 17.4958 13.1251C18.0519 13.1251 18.501 13.5799 18.501 14.1372C18.5036 14.6944 18.0519 15.1492 17.4958 15.1492Z" fill="#256A61"/>
<path d="M6.42545 15.1829C6.70393 15.1829 6.971 15.0723 7.16792 14.8754C7.36483 14.6785 7.47545 14.4114 7.47545 14.1329C7.47545 13.8544 7.36483 13.5874 7.16792 13.3905C6.971 13.1935 6.70393 13.0829 6.42545 13.0829C6.14698 13.0829 5.8799 13.1935 5.68299 13.3905C5.48608 13.5874 5.37545 13.8544 5.37545 14.1329C5.37545 14.4114 5.48608 14.6785 5.68299 14.8754C5.8799 15.0723 6.14698 15.1829 6.42545 15.1829Z" fill="#FED130"/>
<path d="M17.4911 15.17C17.7696 15.17 18.0367 15.0594 18.2336 14.8625C18.4305 14.6655 18.5411 14.3985 18.5411 14.12C18.5411 13.8415 18.4305 13.5744 18.2336 13.3775C18.0367 13.1806 17.7696 13.07 17.4911 13.07C17.2126 13.07 16.9456 13.1806 16.7486 13.3775C16.5517 13.5744 16.4411 13.8415 16.4411 14.12C16.4411 14.3985 16.5517 14.6655 16.7486 14.8625C16.9456 15.0594 17.2126 15.17 17.4911 15.17Z" fill="#FED130"/>
</svg>
