<svg width="272" height="74" viewBox="0 0 272 74" fill="none" xmlns="http://www.w3.org/2000/svg">
<path d="M52.5413 26.1498C52.5327 26.1454 52.5244 26.1422 52.5163 26.1391C52.5011 26.1332 52.4869 26.1278 52.4737 26.115C52.4309 26.0743 52.4139 26.0012 52.4233 25.9428L53.8427 17.1989L60.5061 23.9067L53.5773 26.8743C53.5582 26.8826 53.5374 26.8868 53.5166 26.8868C53.503 26.8868 53.4953 26.8868 53.4885 26.8844C53.4792 26.8811 53.4714 26.8733 53.4532 26.8554C53.2084 26.5812 52.9045 26.3367 52.5413 26.1498ZM62.205 25.6168L69.329 32.7878C70.809 34.2778 71.5491 35.0228 71.8199 35.8843C71.8599 36.0116 71.8928 36.1404 71.9187 36.2704L54.8945 29.0142C54.8858 29.0105 54.8768 29.0068 54.8676 29.0031C54.7987 28.9749 54.7199 28.9429 54.7199 28.8721C54.7199 28.8025 54.8011 28.769 54.8687 28.7409C54.8761 28.738 54.8833 28.735 54.8901 28.7322L62.205 25.6168ZM71.6276 38.5726C71.2602 39.2682 70.5438 39.9893 69.329 41.2123L61.2997 49.2946L50.9119 47.117C50.8946 47.1133 50.8759 47.1103 50.8569 47.1072C50.7661 47.0922 50.6667 47.0757 50.6667 46.991C50.5717 46.1085 50.16 45.3208 49.4633 44.7852C49.4208 44.7429 49.4328 44.6759 49.4438 44.6143C49.4453 44.6056 49.4468 44.5971 49.4482 44.5888L51.4031 32.5157C51.4052 32.5029 51.407 32.4894 51.409 32.4757C51.4217 32.3836 51.4368 32.2753 51.5217 32.2753C52.3954 32.1512 53.146 31.7211 53.6525 31.0453C53.6677 31.0251 53.6797 31.0061 53.7023 30.9951C53.7602 30.9676 53.832 30.9964 53.891 31.0214L71.6276 38.5726ZM59.4518 51.1548L46.2451 64.4489L48.5074 50.462C48.5084 50.4555 48.5093 50.449 48.51 50.4425C48.5124 50.425 48.5146 50.4076 48.521 50.3907C48.5387 50.3458 48.5872 50.3265 48.6331 50.3082C48.6405 50.3053 48.6477 50.3025 48.6546 50.2995C49.1566 50.0894 49.5824 49.7558 49.9323 49.3434C49.9768 49.2911 50.0301 49.2422 50.0977 49.2306C50.1128 49.228 50.1358 49.2297 50.1508 49.2328L59.4518 51.1548ZM43.4503 67.2624L41.9611 68.7614L25.5043 44.8182C25.4983 44.8095 25.4918 44.8008 25.4852 44.7921C25.4593 44.7578 25.4328 44.7225 25.4367 44.6811C25.4393 44.6511 25.4582 44.6269 25.4771 44.6028C25.4832 44.595 25.4894 44.5871 25.495 44.5791C25.5453 44.5066 25.5881 44.4326 25.635 44.3514C25.6471 44.3305 25.6594 44.309 25.6723 44.287L25.676 44.2809C25.7015 44.2371 25.7258 44.1954 25.7704 44.1714C25.8092 44.1507 25.8616 44.1594 25.9046 44.1684L44.1382 47.9535C44.1836 47.963 44.2449 47.9822 44.278 48.015C44.3015 48.0386 44.3065 48.0644 44.312 48.0936C44.314 48.1052 44.3164 48.1174 44.3199 48.13C44.5875 49.0783 45.2738 49.8986 46.2017 50.2681C46.2531 50.2936 46.2304 50.3521 46.2065 50.4133C46.1954 50.4414 46.1842 50.4701 46.1798 50.4964C45.9505 51.9031 43.9792 63.9973 43.4503 67.2624ZM40.3405 70.3909C39.2436 71.4842 38.5967 72.0624 37.8651 72.2953C37.1439 72.5249 36.3696 72.5249 35.6485 72.2953C34.7924 72.0228 34.0523 71.2778 32.5723 69.7878L16.0451 53.1513L20.3611 46.4108C20.3825 46.3775 20.4018 46.3474 20.4339 46.3244C20.4808 46.2909 20.5477 46.307 20.6024 46.3242C21.0466 46.4623 21.4659 46.5183 21.9132 46.5183C22.4905 46.5183 23.0385 46.4023 23.6132 46.1703C23.6617 46.1507 23.7121 46.1391 23.751 46.1738C23.7696 46.1905 23.7887 46.2134 23.8027 46.234L40.3405 70.3909ZM14.4514 51.547L10.6587 47.7291L18.1476 44.514C18.1668 44.5057 18.1875 44.5014 18.2083 44.5014C18.2704 44.5014 18.3067 44.564 18.3406 44.6222C18.349 44.6367 18.3572 44.6507 18.3656 44.6635C18.437 44.7728 18.5085 44.8681 18.5799 44.963C18.5855 44.9704 18.5982 44.9847 18.6035 44.9922C18.6247 45.0237 18.6092 45.0542 18.5887 45.086L14.4514 51.547ZM8.98181 46.0412L4.18454 41.2123C3.36863 40.3909 2.77761 39.796 2.36612 39.2831L16.9497 42.3273C16.9669 42.3308 16.9855 42.334 17.0045 42.3371C17.0954 42.3519 17.1948 42.3684 17.1948 42.4531C17.1948 42.5451 17.0869 42.5882 16.9947 42.6248C16.98 42.6307 16.9657 42.6364 16.9523 42.6422L8.98181 46.0412ZM1.52789 36.8001C1.54452 36.4907 1.59976 36.1831 1.69361 35.8843C1.96431 35.0228 2.70439 34.2778 4.18454 32.7878L10.3248 26.6069C11.3365 28.1017 18.0198 37.8202 18.7999 38.945C18.8075 38.9559 18.8158 38.9672 18.8243 38.9786C18.8741 39.0463 18.9289 39.1209 18.8733 39.1762C18.6044 39.4735 18.3354 39.7989 18.1463 40.1526C18.1239 40.1943 18.0953 40.2416 18.0553 40.2666C18.0309 40.2818 18.006 40.2764 17.9782 40.2705L17.974 40.2697L1.52789 36.8001ZM11.9656 24.9553L20.2198 16.6463C20.9956 16.988 23.8192 18.1891 26.3431 19.2628C28.2561 20.0766 29.9977 20.8175 30.544 21.0551C30.599 21.079 30.6492 21.1008 30.6734 21.1559C30.6879 21.189 30.6808 21.2327 30.6734 21.2682C30.6177 21.5341 30.59 21.7999 30.59 22.0657C30.59 23.0425 30.9701 23.9564 31.635 24.6496C31.6898 24.704 31.6344 24.7838 31.5861 24.8537C31.5771 24.8668 31.5683 24.8796 31.5606 24.8918L23.1813 37.9587C23.1585 37.9942 23.1377 38.0268 23.1025 38.0499C23.058 38.0792 22.9957 38.066 22.9442 38.0529C22.6176 37.9696 22.2677 37.9156 21.945 37.9156C21.645 37.9156 21.3168 37.9722 20.9869 38.0316L20.984 38.0322C20.9483 38.0386 20.9152 38.0448 20.8857 38.0231C20.8533 37.9996 20.8252 37.9619 20.8026 37.9288L11.9656 24.9553ZM21.8864 14.9688L32.5723 4.21224C34.0523 2.72228 34.7924 1.9773 35.6485 1.70481C36.3696 1.47519 37.1439 1.47519 37.8651 1.70481C38.7211 1.9773 39.4612 2.72228 40.9412 4.21224L43.2569 6.54315L35.6575 18.3916C35.6356 18.4256 35.6156 18.4567 35.5823 18.4797C35.5363 18.5115 35.4713 18.4966 35.4176 18.4812C35.033 18.3711 34.6481 18.316 34.2633 18.316C33.4083 18.316 32.5534 18.6311 31.8884 19.1668C31.8392 19.2158 31.7655 19.1856 31.7021 19.1579C30.7096 18.7242 22.9907 15.4387 21.8864 14.9688ZM44.87 8.16695L51.8885 15.2319L50.1986 25.7717C50.1973 25.7802 50.1962 25.79 50.1953 25.8002C50.1927 25.8244 50.1898 25.851 50.1813 25.8701C50.1648 25.9071 50.1286 25.9154 50.09 25.9243C50.077 25.9272 50.0635 25.9304 50.0505 25.9346C49.6951 26.0516 49.3653 26.2162 49.0821 26.429C49.0689 26.439 49.0579 26.4506 49.0472 26.4619C49.0259 26.4847 49.0059 26.5057 48.973 26.5078C48.9513 26.5091 48.9147 26.5043 48.8947 26.4956L38.2018 21.9222C38.1948 21.9192 38.1876 21.9163 38.1803 21.9131C38.1126 21.8852 38.0316 21.8515 38.0316 21.782C37.9739 21.2066 37.784 20.6314 37.4865 20.1281C37.4789 20.1155 37.4712 20.1027 37.4631 20.0898C37.4108 20.0048 37.3549 19.9146 37.3983 19.8283L44.87 8.16695ZM37.6449 24.0887L47.6675 28.363C47.7249 28.3874 47.7835 28.4124 47.8069 28.4704C47.8192 28.5015 47.8133 28.542 47.807 28.5746C47.7789 28.7217 47.7534 28.8915 47.7534 29.0611V29.3448C47.7534 29.4141 47.6813 29.4443 47.6155 29.4715C47.6082 29.4746 47.6008 29.4776 47.5938 29.4805C46.0065 30.1621 25.3005 39.05 25.27 39.05C25.2384 39.05 25.2068 39.05 25.175 39.0186C25.1204 38.9642 25.1755 38.8845 25.2239 38.8144C25.2329 38.8014 25.2417 38.7886 25.2496 38.7764L33.4875 25.9391C33.4923 25.9317 33.4971 25.9241 33.5019 25.9165C33.5506 25.839 33.6051 25.7526 33.6934 25.7526C33.7215 25.7565 33.7492 25.7606 33.7764 25.7644C33.9633 25.7916 34.1291 25.8157 34.2951 25.8157C35.545 25.8157 36.7025 25.2019 37.4023 24.1561C37.4209 24.1283 37.4376 24.1035 37.4639 24.0828C37.5139 24.0438 37.5866 24.0637 37.6449 24.0887ZM26.1659 41.0802L48.735 31.3929C48.735 31.3929 48.7668 31.3931 48.7984 31.4245C48.9221 31.5474 49.0263 31.6321 49.1264 31.7083C49.1413 31.7196 49.1588 31.7298 49.1764 31.7401C49.2227 31.7671 49.2698 31.7947 49.2729 31.8441C49.2738 31.8611 49.272 31.8741 49.2692 31.8909L47.3347 43.8449C47.3321 43.86 47.3301 43.8761 47.3279 43.8924C47.3156 43.9864 47.3018 44.0917 47.2151 44.0917C46.166 44.1531 45.2374 44.7529 44.6925 45.6579C44.6895 45.6629 44.6866 45.6677 44.6836 45.6725C44.6585 45.7152 44.6342 45.7561 44.5899 45.7785C44.5526 45.7972 44.5028 45.789 44.4622 45.7805L26.4651 42.0432C26.4481 42.0396 26.1849 41.0832 26.1659 41.0802Z" fill="#9D9D9D"/>
<path d="M99.5233 24.0139L99.7494 28.0788C102.334 24.9352 105.726 23.3635 109.926 23.3635C117.205 23.3635 120.91 27.5584 121.039 35.9485V59.2H113.189V36.4038C113.189 34.1708 112.709 32.5177 111.751 31.4446C110.793 30.3714 109.226 29.8348 107.05 29.8348C103.885 29.8348 101.526 31.2765 99.9755 34.1599V59.2H92.1252V24.0139H99.5233ZM144.428 59.8504C139.453 59.8504 135.42 58.2732 132.33 55.1188C129.239 51.9644 127.694 47.764 127.694 42.5175V41.5419C127.694 38.0298 128.367 34.8917 129.713 32.1275C131.059 29.3633 132.949 27.2116 135.383 25.6724C137.816 24.1331 140.53 23.3635 143.524 23.3635C148.283 23.3635 151.961 24.8919 154.556 27.9487C157.151 31.0056 158.449 35.3306 158.449 40.924V44.1109H135.609C135.846 47.016 136.809 49.314 138.5 51.0051C140.191 52.6961 142.318 53.5416 144.881 53.5416C148.477 53.5416 151.406 52.0782 153.668 49.1515L157.9 53.2164C156.5 55.3193 154.631 56.9507 152.295 58.1106C149.958 59.2705 147.336 59.8504 144.428 59.8504ZM143.491 29.7048C141.338 29.7048 139.599 30.4636 138.274 31.9811C136.949 33.4987 136.104 35.6125 135.738 38.3224H150.696V37.7371C150.523 35.0922 149.823 33.0922 148.596 31.7372C147.368 30.3823 145.667 29.7048 143.491 29.7048ZM174.376 15.4612V24.0139H180.546V29.8674H174.376V49.5092C174.376 50.8533 174.639 51.8235 175.167 52.4197C175.695 53.0159 176.637 53.314 177.994 53.314C178.898 53.314 179.814 53.2056 180.74 52.9888V59.1024C178.952 59.6011 177.229 59.8504 175.571 59.8504C169.541 59.8504 166.525 56.5009 166.525 49.8018V29.8674H160.775V24.0139H166.525V15.4612H174.376ZM194.89 59.2H187.04V9.24999H194.89V59.2ZM211.786 59.2H203.935V24.0139H211.786V59.2ZM203.451 14.8759C203.451 13.6618 203.833 12.6537 204.598 11.8516C205.362 11.0494 206.455 10.6483 207.877 10.6483C209.298 10.6483 210.397 11.0494 211.172 11.8516C211.947 12.6537 212.335 13.6618 212.335 14.8759C212.335 16.0683 211.947 17.0601 211.172 17.8514C210.397 18.6427 209.298 19.0384 207.877 19.0384C206.455 19.0384 205.362 18.6427 204.598 17.8514C203.833 17.0601 203.451 16.0683 203.451 14.8759ZM223.093 59.2V29.8674H217.762V24.0139H223.093V20.7944C223.093 16.8921 224.17 13.8786 226.323 11.754C228.477 9.62937 231.492 8.56708 235.369 8.56708C236.747 8.56708 238.212 8.76219 239.762 9.15243L239.569 15.3311C238.707 15.1577 237.706 15.071 236.564 15.071C232.817 15.071 230.943 17.0113 230.943 20.892V24.0139H238.05V29.8674H230.943V59.2H223.093ZM256.012 47.8832L263.12 24.0139H271.487L257.595 64.5332C255.463 70.4518 251.845 73.411 246.741 73.411C245.599 73.411 244.339 73.2159 242.961 72.8257V66.712L244.447 66.8096C246.428 66.8096 247.92 66.4464 248.921 65.7202C249.923 64.9939 250.714 63.7744 251.296 62.0617L252.426 59.0374L240.15 24.0139H248.614L256.012 47.8832Z" fill="#717485"/>
</svg>
