<svg width="25" height="25" viewBox="0 0 25 25" fill="none" xmlns="http://www.w3.org/2000/svg">
<path d="M4.16667 2.08334H20.8333C21.3859 2.08334 21.9158 2.30283 22.3065 2.69353C22.6972 3.08423 22.9167 3.61413 22.9167 4.16667V16.6667C22.9167 17.2192 22.6972 17.7491 22.3065 18.1398C21.9158 18.5305 21.3859 18.75 20.8333 18.75H4.16667C3.61413 18.75 3.08423 18.5305 2.69353 18.1398C2.30283 17.7491 2.08333 17.2192 2.08333 16.6667V4.16667C2.08333 3.02084 3.02083 2.08334 4.16667 2.08334ZM4.16667 4.16667V15.625H20.8333V4.16667H4.16667ZM8.33333 20.8333C8.33333 20.5571 8.44308 20.2921 8.63843 20.0968C8.83378 19.9014 9.09873 19.7917 9.375 19.7917H15.625C15.9013 19.7917 16.1662 19.9014 16.3616 20.0968C16.5569 20.2921 16.6667 20.5571 16.6667 20.8333V21.4479L17.3958 22.1771C17.5421 22.3222 17.6421 22.5073 17.6831 22.7092C17.7241 22.9111 17.7044 23.1206 17.6263 23.3113C17.5483 23.502 17.4154 23.6652 17.2446 23.7804C17.0738 23.8955 16.8727 23.9575 16.6667 23.9583H8.33333C8.12945 23.9555 7.9309 23.8928 7.76228 23.7782C7.59366 23.6635 7.46239 23.5019 7.38476 23.3134C7.30712 23.1248 7.28653 22.9177 7.32553 22.7175C7.36453 22.5174 7.46142 22.3331 7.60417 22.1875L8.33333 21.4479V20.8333Z" fill="#256A61"/>
<path d="M18.9536 16.5409L22.7036 20.2909C22.8919 20.4792 22.9977 20.7346 22.9977 21.0009C22.9977 21.2672 22.8919 21.5226 22.7036 21.7109C22.5153 21.8992 22.2599 22.005 21.9936 22.005C21.7273 22.005 21.4719 21.8992 21.2836 21.7109L17.5336 17.9609L16.9636 20.2409C16.9103 20.4455 16.7935 20.628 16.63 20.7622C16.4665 20.8963 16.2647 20.9751 16.0536 20.9874C15.8425 20.9996 15.6329 20.9446 15.455 20.8302C15.2772 20.7158 15.1401 20.548 15.0636 20.3509L12.0636 12.3509C11.9965 12.1717 11.9821 11.9771 12.0223 11.7901C12.0624 11.603 12.1554 11.4314 12.2901 11.2957C12.4249 11.1599 12.5958 11.0656 12.7825 11.0239C12.9692 10.9823 13.1639 10.9952 13.3436 11.0609L21.3436 14.0609C21.5448 14.1341 21.7173 14.27 21.8355 14.4486C21.9537 14.6272 22.0114 14.839 22.0003 15.0529C21.9891 15.2667 21.9095 15.4714 21.7733 15.6366C21.6371 15.8019 21.4514 15.9191 21.2436 15.9709L18.9436 16.5409H18.9536Z" fill="#FED130"/>
</svg>
